<mxfile host="app.diagrams.net" modified="2024-04-26T08:50:18.577Z" agent="Mozilla/5.0 (X11; Linux x86_64; rv:124.0) Gecko/20100101 Firefox/124.0" etag="ZY9q6zfe5qnC_OajB3QI" version="24.3.0" type="github">
  <diagram name="第 1 页" id="yDBOVp7AL97DCjPwirFm">
    <mxGraphModel dx="1369" dy="798" grid="1" gridSize="10" guides="1" tooltips="1" connect="1" arrows="1" fold="1" page="1" pageScale="1" pageWidth="827" pageHeight="1169" math="0" shadow="0">
      <root>
        <mxCell id="0" />
        <mxCell id="1" parent="0" />
      </root>
    </mxGraphModel>
  </diagram>
</mxfile>
